# xmcd CD database file
#
# Track frame offsets:
#	150
#	37781
#	73375
#	131836
#	152105
#	202350
#	248669
#
# Disc length: 4176 seconds
#
# Revision: 0
# Processed by: cddbd v1.5.2PL0 Copyright (c) Steve Scherf et al.
# Submitted via: CDex 1.70beta2
#
DISCID=67104e07
DTITLE=Sonny Simmons - Transcendence
DYEAR=1996
DGENRE=Jazz
TTITLE0=Manhattan rejects
TTITLE1=Geraldine's dream
TTITLE2=Nuclear fission
TTITLE3=In the arena
TTITLE4=Phrazaronica
TTITLE5=Lost village of um' tombey
TTITLE6=Cosmomatics
EXTD=YEAR: 1996
EXTT0=
EXTT1=
EXTT2=
EXTT3=
EXTT4=
EXTT5=
EXTT6=
PLAYORDER=
